<svg height="512pt" viewBox="0 -90 512 512" width="512pt" xmlns="http://www.w3.org/2000/svg"><path d="m352.738281 147.035156c0-.15625.003907-.3125.003907-.46875 0-56.964844-46.179688-103.144531-103.144532-103.144531-44.382812 0-82.214844 28.027344-96.765625 67.351563-6.070312-3.507813-13.109375-5.523438-20.625-5.523438-22.816406 0-41.316406 18.5-41.316406 41.316406 0 .066406.003906.128906.003906.195313-46.554687 2.988281-83.394531 41.6875-83.394531 89 0 49.261719 39.933594 89.195312 89.195312 89.195312h246.859376c49.261718 0 89.195312-39.933593 89.195312-89.195312 0-46.160157-35.066406-84.128907-80.011719-88.726563zm0 0" fill="#e5ebf5"/><path d="m475.796875 136.363281c-55.316406 0-100.160156-44.84375-100.160156-100.160156 0-8.867187 1.160156-17.46875 3.324219-25.65625-29.128907 7.699219-53.046876 28.195313-65.398438 55.101563 23.863281 18.890624 39.179688 48.117187 39.179688 80.917968 0 .15625-.003907.3125-.003907.46875 34.394531 3.515625 62.984375 26.589844 74.519531 57.914063 36.121094-8.347657 64.765626-36.21875 74.195313-71.910157-8.1875 2.167969-16.789063 3.324219-25.65625 3.324219zm0 0" fill="#f8e868"/><path d="m162.214844 105.25c7.511718 0 14.550781 2.015625 20.621094 5.523438 12.886718-34.816407 44.027343-60.765626 81.800781-66.257813-4.910157-.71875-9.929688-1.09375-15.039063-1.09375-42.535156 0-79.035156 25.75-94.8125 62.507813 2.410156-.4375 4.890625-.679688 7.429688-.679688zm0 0" fill="#cad8ea"/><path d="m37.503906 235.761719c0-47.3125 36.839844-86.011719 83.398438-89.003907 0-.0625-.007813-.125-.007813-.191406 0-17.515625 10.90625-32.472656 26.292969-38.484375-4.644531-1.816406-9.691406-2.832031-14.976562-2.832031-22.820313 0-41.320313 18.5-41.320313 41.316406 0 .066406.007813.128906.007813.191406-46.558594 2.992188-83.398438 41.691407-83.398438 89.003907 0 49.261719 39.933594 89.195312 89.195312 89.195312h30.003907c-49.261719 0-89.195313-39.933593-89.195313-89.195312zm0 0" fill="#cad8ea"/><path d="m382.738281 147.035156c.003907-.15625.007813-.3125.007813-.46875 0-32.800781-15.316406-62.027344-39.183594-80.917968 7.28125-15.855469 18.578125-29.480469 32.585938-39.578126.535156-5.308593 1.480468-10.492187 2.8125-15.523437-29.128907 7.699219-53.046876 28.195313-65.398438 55.101563 23.863281 18.890624 39.179688 48.117187 39.179688 80.917968 0 .15625-.003907.3125-.003907.46875 34.398438 3.515625 62.988281 26.59375 74.519531 57.917969 9.097657-2.105469 17.714844-5.449219 25.675782-9.839844-13.457032-26.234375-39.507813-44.941406-70.195313-48.078125zm0 0" fill="#e0c938"/><path d="m238.492188 258.460938h-15.003907v-15h15.003907zm-25.003907 0h-15.003906v-15h15.003906zm0 0" fill="#fff"/><path d="m360.078125 140.476562c-3.171875-58.191406-51.515625-104.558593-110.480469-104.558593-43.382812 0-82.882812 25.71875-100.710937 64.769531-5.324219-1.933594-10.972657-2.9375-16.675781-2.9375-24.664063 0-45.117188 18.386719-48.367188 42.171875-47.519531 6.320313-83.84375 47.210937-83.84375 95.839844 0 53.320312 43.378906 96.695312 96.695312 96.695312h246.859376c53.316406 0 96.695312-43.375 96.695312-96.695312 0-47.691407-34.550781-87.421875-80.171875-95.285157zm-16.523437 176.980469h-246.859376c-45.046874 0-81.695312-36.648437-81.695312-81.695312 0-42.960938 33.550781-78.765625 76.378906-81.515625l7.070313-.457032c-.054688-7.640624-.050781-6.957031-.058594-7.316406.054687-18.601562 15.203125-33.722656 33.816406-33.722656 5.921875 0 11.757813 1.5625 16.875 4.519531l7.699219 4.445313 3.085938-8.339844c13.824218-37.355469 49.882812-62.453125 89.726562-62.453125 52.738281 0 95.648438 42.90625 95.648438 95.644531l-.027344 7.238282 6.757812.691406c41.773438 4.273437 73.273438 39.210937 73.273438 81.265625.003906 45.046875-36.644532 81.695312-81.691406 81.695312zm0 0"/><path d="m499.539062 125.789062c-7.71875 2.039063-15.707031 3.074219-23.742187 3.074219-51.09375 0-92.660156-41.566406-92.660156-92.65625 0-8.039062 1.035156-16.027343 3.074219-23.742187l3.292968-12.464844-12.460937 3.292969c-21.230469 5.613281-40.023438 17.460937-54.355469 34.269531l11.414062 9.730469c9.613282-11.273438 21.554688-19.953125 34.996094-25.523438-9.441406 70.292969 50.585938 130.597657 121.113282 121.132813-8.007813 19.207031-22.445313 35.457031-40.882813 45.632812l7.25 13.132813c25.667969-14.164063 44.667969-38.480469 52.128906-66.710938l3.292969-12.460937zm0 0"/></svg>